<?xml version="1.0" encoding="utf-8"?>
<!-- Generator: Adobe Illustrator 19.0.0, SVG Export Plug-In . SVG Version: 6.00 Build 0)  -->
<svg version="1.1"
	 id="svg2" xmlns:dc="http://purl.org/dc/elements/1.1/" xmlns:sodipodi="http://sodipodi.sourceforge.net/DTD/sodipodi-0.dtd" xmlns:cc="http://web.resource.org/cc/" xmlns:svg="http://www.w3.org/2000/svg" xmlns:rdf="http://www.w3.org/1999/02/22-rdf-syntax-ns#" xmlns:inkscape="http://www.inkscape.org/namespaces/inkscape" sodipodi:docbase="C:\Users\Mistrz\Desktop" inkscape:output_extension="org.inkscape.output.svg.inkscape" inkscape:version="0.45.1" sodipodi:docname="POL_ĹĂłdĹş_COA.svg" sodipodi:version="0.32"
	 xmlns="http://www.w3.org/2000/svg" xmlns:xlink="http://www.w3.org/1999/xlink" x="0px" y="0px" viewBox="-60 -5.3 478.1 611.3"
	 style="enable-background:new -60 -5.3 478.1 611.3;" xml:space="preserve">
<style type="text/css">
	.st0{fill:none;stroke:#FFFFFF;stroke-width:5.3099;stroke-miterlimit:10;}
	.st1{fill:none;stroke:#FFFFFF;stroke-width:0.885;stroke-miterlimit:10;}
	.st2{fill:none;stroke:#FFFFFF;stroke-width:4.4249;stroke-miterlimit:10;}
	.st3{fill:#FFFFFF;}
</style>
<sodipodi:namedview  pagecolor="#ffffff" bordercolor="#666666" id="base" borderopacity="1.0" objecttolerance="10.0" gridtolerance="10.0" guidetolerance="10.0" inkscape:window-width="640" inkscape:pageopacity="0.0" inkscape:pageshadow="2" inkscape:window-height="480">
	</sodipodi:namedview>
<g id="g12">
	<path id="path14" class="st0" d="M-32.5,29.8h423.1v461.7c-0.2,30.4-19.5,46.8-61.7,46.6l-89,0.2c-31.9,0.2-52.4,10.7-60.4,32.6
		c-10.4-21.7-30.9-32.6-61.7-32.6l-88.3,0.1c-36.5,0-61.7-11.2-62-46.8L-32.5,29.8"/>
	<path id="path16" class="st0" d="M150.2,288.3c-8.3,0-15.1-6.8-15.1-15.1c0-2.2,0.5-4.3,1.4-6.2l-75.9,0.3L3.8,145.1l-10.3-19.8
		l-6.4,2.8l9.9,23.5l1.3,4.5l56.9,121.1l71.9-0.9c1.5,11.4,11.3,20.2,23.1,20.2c12,0,21.9-9.1,23.2-20.7l110.6-1.3l81.5-123.6
		l6.2-9.7l-5.9-4.5L349.9,158l-71.8,108.4l-114.3,0.5c0.9,1.9,1.4,4.1,1.4,6.3C165.2,281.5,158.5,288.3,150.2,288.3"/>
	<path id="path18" class="st0" d="M349.9,158l-71.8,108.4l-114.3,0.5c0.9,1.9,1.4,4.1,1.4,6.3c0,8.3-6.8,15.1-15.1,15.1
		c-8.3,0-15.1-6.8-15.1-15.1c0-2.2,0.5-4.3,1.4-6.2l-75.9,0.3L3.8,145.1l55,102.5h225L349.9,158"/>
	<path id="path20" class="st1" d="M127,276.3c1.5,11.4,11.3,20.2,23.1,20.2c12,0,21.9-9.1,23.2-20.7l110.6-1.3l81.5-123.6
		c-8.5,17.2-16,51.6-23.4,87.8c-9.6,54.1-35.8,87.3-74.6,104.6c-15.7,7.5-33.8,9.9-52.9,9.9h-108c-56.1,0.7-84.5-35-92.6-97.5
		l-15.6-99.7l56.9,121.1L127,276.3"/>
	<path id="path22" class="st1" d="M126.9,276.5c1.5,11.3,11.4,20.1,23.2,20.1c12.3,0,22.2-9.1,23.5-20.7
		c36.9-0.4,73.8-0.9,110.6-1.3c26.7-40.5,53.3-81,80-121.5c-8.2,17-15.5,50.3-22.6,85.4c-9.6,53.9-35.8,86.9-74.4,104.2
		c-15.7,7.5-33.7,9.8-52.8,9.9c-35.9,0-71.9,0-107.8,0c-56,0.7-84.3-34.9-92.4-97.1c-5.1-32.6-10.3-65.2-15.4-97.8
		c18.7,39.9,37.4,79.8,56.2,119.7C78.9,277.1,102.9,276.8,126.9,276.5"/>
	<path id="path24" class="st1" d="M126.8,276.7c1.5,11.3,11.4,20,23.2,20c12.6,0,22.5-9,23.8-20.6c36.9-0.4,73.8-0.9,110.7-1.3
		c26.1-39.8,52.3-79.6,78.4-119.4c-8,16.7-15,49-21.9,82.9c-9.6,53.7-35.7,86.6-74.3,103.8c-15.6,7.4-33.6,9.8-52.7,9.8
		c-35.8,0-71.7,0-107.5,0c-55.8,0.7-84.1-34.8-92.2-96.7c-5-32-10.1-64-15.1-96c18.5,39.4,36.9,78.8,55.4,118.2
		C78.6,277.3,102.7,277,126.8,276.7"/>
	<path id="path30" class="st2" d="M126.5,277.4c1.5,11.1,11.6,19.8,23.2,19.8c13.6,0,23.4-8.9,24.7-20.3
		c36.9-0.4,73.9-0.9,110.8-1.3c24.6-37.7,49.3-75.4,73.9-113c-7.1,16-13.4,45-19.7,75.5c-9.5,53-35.4,85.5-73.8,102.5
		c-15.5,7.3-33.4,9.7-52.3,9.7c-35.6,0-71.2,0-106.8,0c-55.5,0.7-83.6-34.3-91.6-95.5c-4.8-30.2-9.5-60.3-14.3-90.5
		c17.7,38,35.4,76,53.2,113.9C78,277.9,102.2,277.6,126.5,277.4"/>
	<path id="path34" class="st0" d="M126.2,277.8c1.5,11.1,11.7,19.6,23.3,19.6c14.2,0,24-8.8,25.2-20.2c37-0.4,73.9-0.8,110.9-1.3
		c23.6-36.3,47.3-72.5,70.9-108.8c-6.6,15.5-12.4,42.4-18.2,70.6c-9.5,52.6-35.3,84.8-73.4,101.7c-15.5,7.3-33.3,9.6-52.1,9.6
		c-35.4,0-70.9,0-106.3,0c-55.2,0.6-83.2-34-91.1-94.8c-4.6-28.9-9.2-57.9-13.8-86.8c17.2,37,34.4,74.1,51.7,111.1
		C77.6,278.3,101.9,278.1,126.2,277.8"/>
	<path id="path64" class="st3" d="M258.3,133L117.9,304.9c-25.8,30.7-33.2,26.7-53.4,43.5l-49.3,58.4l32.6,26.2l46.9-58.7
		c17.4-26.2,8.1-29.5,36.2-63.5l136.1-170.3l9.6,8.3l7.9-9.4l-28.4-22.9l-7.5,8.1L258.3,133"/>
	<path id="path70" class="st3" d="M11.3,184H3.8l-0.4-2.3h6.8L11.3,184z M25,213.3H8.7L8.4,211H24L25,213.3L25,213.3z M38.5,241.7
		H13.2l-0.3-2.3h24.6L38.5,241.7z M50.3,266.9H17l0.4,2.3h33.9L50.3,266.9z M343.6,184h10.7l0.6-2.3h-9.7L343.6,184L343.6,184z
		 M324.3,213.3h23l0.5-2.3h-22L324.3,213.3L324.3,213.3z M305.5,241.7h36l0.4-2.3H307L305.5,241.7L305.5,241.7z M287.4,269.2h46.7
		l0.8-2.3h-46.1L287.4,269.2L287.4,269.2z M165.9,295.8h155.8l-1.4,2.3H158.9C161.6,297.5,163.7,296.7,165.9,295.8z M96.1,326.9
		c0.9-0.7,1.8-1.5,2.8-2.3H40.7l1.9,2.3H96.1L96.1,326.9z M120.4,324.7c-0.5,0.8-1.1,1.5-1.5,2.3h175.7l2.7-2.3H120.4z M125.4,295.8
		l-0.4,0.5l-1.5,1.8H25.6l-0.8-2.3L125.4,295.8"/>
</g>
</svg>
